<svg xmlns="http://www.w3.org/2000/svg" width="456.008" height="560.035" viewBox="0 0 456.008 560.035">
  <path id="apple" d="M380.844,297.529c.787,84.752,74.349,112.955,75.164,113.314a306.492,306.492,0,0,1-38.756,79.652c-23.343,34.117-47.568,68.107-85.731,68.811-37.5.691-49.557-22.236-92.429-22.236S182.836,558.6,147.339,560c-36.837,1.4-64.889-36.891-88.424-70.883-48.093-69.53-84.846-196.475-35.5-282.165,24.516-42.554,68.328-69.5,115.882-70.192,36.173-.69,70.315,24.336,92.429,24.336s63.59-30.1,107.208-25.676c18.26.76,69.517,7.376,102.429,55.552-2.652,1.644-61.159,35.7-60.523,106.559M310.369,89.418C329.926,65.745,343.089,32.79,339.5,0,311.308,1.133,277.22,18.785,257,42.445c-18.121,20.952-33.991,54.487-29.709,86.628,31.421,2.431,63.52-15.967,83.078-39.655" fill="#fff"/>
</svg>
