<svg xmlns="http://www.w3.org/2000/svg" width="178.877" height="43.585" viewBox="0 0 178.877 43.585">
  <g id="Dropbox_logo_2017" transform="translate(16.876 5.844)">
    <path id="Path_1" data-name="Path 1" d="M25.678,8.19,12.839,16.38l12.839,8.19-12.839,8.19L0,24.526l12.839-8.19L0,8.19,12.839,0ZM12.772,35.4,25.611,27.2,38.45,35.4l-12.839,8.19ZM25.678,24.526l12.839-8.19L25.678,8.19,38.45,0,51.289,8.19,38.45,16.38l12.839,8.19L38.45,32.761Z" transform="translate(-16.877 -5.844)" fill="#0061ff"/>
    <path id="Path_2" data-name="Path 2" d="M277.2,28.788h7.6c4.844,0,8.845,2.8,8.845,9.2v1.345c0,6.448-3.742,9.347-8.7,9.347H277.2Zm4.244,3.613V45.052H284.7c2.754,0,4.6-1.8,4.6-5.8V38.2c0-4-1.944-5.8-4.747-5.8Zm14.45.194h3.4l.551,3.742c.648-2.543,2.3-3.9,5.3-3.9H306.2v4.293h-1.75c-3.451,0-4.293,1.2-4.293,4.6v7.4h-4.2V32.595Zm11.146,8.392v-.454c0-5.395,3.451-8.343,8.149-8.343,4.8,0,8.149,2.948,8.149,8.343v.454c0,5.3-3.256,8.149-8.149,8.149C309.989,49.086,307.04,46.3,307.04,40.986Zm12-.049v-.405c0-3-1.507-4.8-3.9-4.8-2.349,0-3.9,1.652-3.9,4.8v.405c0,2.9,1.507,4.552,3.9,4.552C317.538,45.441,319.045,43.837,319.045,40.938Zm6.5-8.343h3.5l.4,3.046a5.43,5.43,0,0,1,5.3-3.451c4.1,0,6.8,2.948,6.8,8.408v.454c0,5.3-3,8.1-6.8,8.1a5.286,5.286,0,0,1-5.152-3V54.3h-4.1l.049-21.708Zm11.745,8.343v-.356c0-3.208-1.652-4.8-3.856-4.8-2.349,0-3.9,1.8-3.9,4.8v.308c0,2.851,1.507,4.649,3.856,4.649C335.8,45.49,337.286,43.951,337.286,40.938Zm10.465,4.811-.356,2.948h-3.6V27.2h4.1v8.246a5.288,5.288,0,0,1,5.249-3.256c3.856.049,6.707,2.705,6.707,8.051v.5c0,5.346-2.705,8.408-6.8,8.408A5.37,5.37,0,0,1,347.751,45.749Zm7.792-5.006v-.4c0-2.948-1.6-4.6-3.856-4.6-2.3,0-3.9,1.847-3.9,4.649v.356c0,3,1.555,4.747,3.856,4.747C354.1,45.49,355.543,43.951,355.543,40.743Zm6.107.243v-.454c0-5.395,3.451-8.343,8.149-8.343,4.8,0,8.149,2.948,8.149,8.343v.454c0,5.3-3.3,8.149-8.149,8.149C364.6,49.086,361.651,46.3,361.651,40.986Zm12.037-.049v-.405c0-3-1.507-4.8-3.9-4.8-2.349,0-3.9,1.652-3.9,4.8v.405c0,2.9,1.507,4.552,3.9,4.552C372.2,45.441,373.687,43.837,373.687,40.938Zm9.752-.6-5.654-7.744h4.844l3.256,4.844,3.3-4.844h4.8l-5.735,7.7,6.043,8.408h-4.747l-3.694-5.346-3.6,5.346H377.3Z" transform="translate(-232.294 -22.794)"/>
  </g>
</svg>
