<svg xmlns="http://www.w3.org/2000/svg" width="498.033" height="499.999" viewBox="0 0 498.033 499.999">
  <g id="Group_3" data-name="Group 3" transform="translate(0 0)">
    <g id="Group_1" data-name="Group 1">
      <path id="Path_3" data-name="Path 3" d="M156.563,214.9c-4.146-.2-8.072,1-12.076,1.782a51.35,51.35,0,0,1-8.778.822,10.159,10.159,0,0,0-3.838.32c-1.114.463-2.288.061-3.413.039a48.294,48.294,0,0,1-14.32-2.053,4.712,4.712,0,0,1-1.605-1.065c-1.571-1.451-3.766-2.173-5.073-3.856-2.239-2.885-4.885-5.511-5.768-9.324-.419-1.815-1.533-3.453-1.235-5.456a25.257,25.257,0,0,1,1.053-5.693,33.882,33.882,0,0,0,1.588-8.066,4.969,4.969,0,0,0-1.169-3.5,45.936,45.936,0,0,1-3.154-5.368,4.271,4.271,0,0,1-.358-3.928c.606-1.522.81-3.183,1.676-4.623a1.4,1.4,0,0,0-.3-1.793,21.863,21.863,0,0,1-1.8-2.571c-.965-1.236-.981-2.582-1.2-4.033-.4-2.736,1.643-3.829,3.16-4.987,2.04-1.567,2.79-3.746,1.394-6.085-1.2-2.02-3.187-3.151-4.968-4.508a22.437,22.437,0,0,1-4.152-4.469c-1.1-1.45-1.053-3.354-1.047-5.064a24.542,24.542,0,0,1,4.67-14.388,33.846,33.846,0,0,0,2.663-5.512c1.153-2.466,2.608-4.745,3.9-7.111.932-1.711,2.525-3.046,3.622-4.684,1.941-2.908,4.026-5.843,3.9-9.556a18.231,18.231,0,0,0-2.018-6.62,21.356,21.356,0,0,1-1.5-6.168,32.6,32.6,0,0,1,.287-11.288,21.267,21.267,0,0,1,2.762-6.057c4.3-7.079,8.751-14.069,13.085-21.12a23.66,23.66,0,0,1,2.967-3.685,91.989,91.989,0,0,1,8.844-8.926c3.888-3.156,7.742-6.361,11.619-9.528,3.06-2.505,6.363-4.662,9.649-6.852a36.7,36.7,0,0,1,9.915-4.546c2.883-.872,5.5-2.505,8.447-3.222,2.542-.624,5.046-1.429,7.736-1.275a25.682,25.682,0,0,0,5.614-.546,19.591,19.591,0,0,1,5.349.342,69.754,69.754,0,0,0,8.386.193A25.513,25.513,0,0,1,211,2.413c3.022,1.219,6.325,1,9.446,1.754a19.829,19.829,0,0,1,5.15,2.2,8.16,8.16,0,0,0,4.257,1.093,13.8,13.8,0,0,1,8.089,2.576,51.334,51.334,0,0,0,6.6,3.7,12.76,12.76,0,0,1,4.83,3.393,1.45,1.45,0,0,0,1.99.447c.817-.5,1.313-.1,1.815.364,2.906,2.648,6.418,4.469,9.4,7.023a22.369,22.369,0,0,1,3.716,3.614,6.126,6.126,0,0,0,2.415,2.19c1.666.7,2.515,2.1,3.43,3.558,2.051,3.266,2.8,6.924,3.529,10.6a36.546,36.546,0,0,0,2.79,7.453c2.333,5.346,4.505,10.742,5.31,16.551a56.965,56.965,0,0,1,.122,17.1c-.7,4.243-.855,8.579-1.622,12.81-1.025,5.65-.887,11.459-2.387,17.015a39.42,39.42,0,0,1-6.474,14.068,43.055,43.055,0,0,1-5.381,5.457c-2.338,2.113-4.516,4.358-6.672,6.653-2.664,2.83-5.592,5.4-8.349,8.143-1.092,1.087-2.029,2.323-3.038,3.492-.778.911-1.489,1.937-2.873,1.9-.474-.011-.546.337-.722.618a6.59,6.59,0,0,0-1.037,3.514c-.016,3.8.072,7.592.011,11.393-.055,3.167.816,6.334,1.092,9.522.292,3.36,1.318,6.566,1.831,9.881a24.847,24.847,0,0,0,1.808,5.23c1.059,2.649,2.068,5.335,3.331,7.89,2.316,4.7,4.086,9.654,7.912,13.577a29.045,29.045,0,0,0,7.152,5.76,15.131,15.131,0,0,0,5.046,1.357,135.3,135.3,0,0,0,18.367,1.054,18.136,18.136,0,0,1,3.264.424c1.826.348,3.4-.684,5.134-.871,3.033-.331,6.049-.806,9.071-1.208,2.624-.354,4.742-1.965,7.152-2.869a47.787,47.787,0,0,0,6.286-2.317,2.233,2.233,0,0,1,2.883.612,4.1,4.1,0,0,1,.309,4.292,28.667,28.667,0,0,1-5.437,7.746c-2.288,2.35-4.527,4.739-6.854,7.045a47.553,47.553,0,0,1-4.262,3.763c-1.985,1.533-3.584,3.464-5.426,5.147-3.518,3.211-7.372,5.975-11.045,8.982-2.928,2.394-5.971,4.64-8.811,7.15-1.45,1.285-3.116,2.328-4.66,3.509-1.417,1.081-2.751,2.262-4.223,3.282-2.7,1.87-5.068,4.177-7.847,5.959-1.544.993-2.906,2.25-4.411,3.326-1.71,1.22-3.485,2.334-5.272,3.382a108.789,108.789,0,0,0-16.046,11.735,40.748,40.748,0,0,1-7.521,4.86c-2.327,1.247-4.819,2.18-7.108,3.482-2.464,1.406-4.725,3.177-7.173,4.617a36.991,36.991,0,0,1-7.913,3.084,92.08,92.08,0,0,0-11.315,3.912,27.6,27.6,0,0,1-10.146,2.979,47.925,47.925,0,0,0-7.7,1.159,27.885,27.885,0,0,1-12.6-.144,55.676,55.676,0,0,0-7.158-.728q-6.932-.729-13.862-1.512c-3.424-.386-6.766.4-10.146.651-3.187.237-6.385.414-9.584.5-1.588.044-2.983.773-4.521.96a25.028,25.028,0,0,1-9.507-.673c-2.409-.629-4.918-.849-7.355-1.385a8.42,8.42,0,0,1-3.331-1.892c-1.582-1.28-2.911-2.9-4.422-4.22-3.468-3.035-3.777-6.759-3.05-10.781a12.717,12.717,0,0,1,3.248-6.455,54.091,54.091,0,0,1,8.68-7.376c1.455-1.026,3.269-1.269,4.758-2.2,4.207-2.643,8.983-3.713,13.758-4.342a112.151,112.151,0,0,1,11.861-1.252,25.073,25.073,0,0,0,11.149-2.45,15.894,15.894,0,0,1,4.963-1.147c3.319-.513,5.646-2.582,7.846-4.855a3.161,3.161,0,0,0,.431-1.1c1.571-.927,3.325-2.174,3.617-3.763a44.562,44.562,0,0,0,1.114-8.231c-.011-1.865-.651-3.663-.574-5.462a29.27,29.27,0,0,0-1.053-7.166,92.5,92.5,0,0,1-1.417-9.181c-.044-.447.038-.954-.276-1.3-1.092-1.192-.733-2.847-.628-4,.193-2.113-.8-3.84-1.219-5.655-.689-2.979-2.112-5.826-3-8.8a.713.713,0,0,0-1-.568A11.36,11.36,0,0,0,156.563,214.9Zm64.416,161.841c.556-1.2,1.174-2.372,1.665-3.6a17.085,17.085,0,0,1,4.163-6.184c2.029-1.9,4.56-1.843,7.074-1.236a5.387,5.387,0,0,0,2.5.132,5.949,5.949,0,0,1,2.675-.209c2.735.75,4.654-.558,6.617-2.141A9.477,9.477,0,0,1,252,361.26c3.948.044,7.847.7,11.806.6a11.875,11.875,0,0,1,5.608,1.435,5.756,5.756,0,0,1,3.4,5.649c1.23-1.263,2.007-2.427,3.3-3.084a8.419,8.419,0,0,1,5.443-1.009c2.652.43,5.382.4,8.072.562a10.439,10.439,0,0,0,4.588-.557c1.307-.518,2.686-.21,4.02-.347,3.182-.337,6.363-.651,9.55-.889,2.366-.176,5.73,2.522,5.967,4.756a2.572,2.572,0,0,1-.706,1.771c-2.151,2.769-4.334,5.644-7.455,7.233-2.079,1.059-4.009,2.626-6.689,2.642-2.09.011-4.2.828-6.258,1.369-3.171.833-6.518,1.241-9.457,2.753-3.314,1.7-6.446,3.734-6.639,8.087-.005.1.011.232-.039.293-1.99,2.289-1.45,5.318-2.354,7.917-.386,1.114.044,2.19-.177,3.271-.7,3.465-1.466,6.919-2,10.411a14.915,14.915,0,0,0-.055,6.113c.435,1.655,1.913,2.51,3.082,3.564.513.463.827-.309,1.125-.662,2.139-2.522,3.617-5.49,5.486-8.2a73.018,73.018,0,0,1,5.779-7.2q1.453-1.623,2.978-3.178a16.349,16.349,0,0,1,10.515-5.1,39.292,39.292,0,0,1,4.334-.314,4.757,4.757,0,0,1,3.474,1.544,2.948,2.948,0,0,1,.778,3.289,24.968,24.968,0,0,1-5.779,9.257,20.081,20.081,0,0,0-4.125,6.163c-1.174,2.686-3.054,5.02-4.422,7.641-1.29,2.482-2.222,5.1-3.314,7.646-1.8,4.193-1.152,8.7-2.487,12.915-.573,1.821-.353,4.022-.634,6.03-.452,3.2-.121,6.494-1.086,9.628a46.971,46.971,0,0,1-6.3,13.417c-3.149,4.474-6.082,9.114-10.19,12.794a29.943,29.943,0,0,1-9.683,5.947c-3.342,1.225-6.782,2.08-10.146,3.2a6.138,6.138,0,0,1-2.2.331c-2.443-.077-4.8.546-7.2.822a28.673,28.673,0,0,1-8.541-.248c-5.173-.971-10.334-1.986-15.418-3.333a36.519,36.519,0,0,0-8.039-1.169c-1.362-.05-2.581.64-3.959.634a42.481,42.481,0,0,1-11.42-1.771,17.225,17.225,0,0,1-7.571-4.915c-3.2-3.288-4.775-7.6-5.453-12.22-.4-2.687-.039-5.379-.48-8.061a11.407,11.407,0,0,1,.888-5.98c1.246-3.255,3.126-6.3,3.766-9.732.59-3.167,1.8-6.124,2.658-9.191.832-2.98,1.637-5.964,2.349-8.971a120.368,120.368,0,0,0,2.856-21.213c.165-3.023.116-6.091.077-9.13-.039-2.93.342-5.837-.011-8.817-.518-4.386-.347-8.854-.474-13.29a10.746,10.746,0,0,1,.7-4.276,8.111,8.111,0,0,0,.623-3.519,1.343,1.343,0,0,1,.138-.872c1.417-1.55,1.968-3.713,3.551-5.114,2.586-2.3,5.249-4.5,7.14-7.459,1.225-1.909,3.347-2.913,4.687-4.8,1.009-1.417,1.9-2.935,2.983-4.286a99.293,99.293,0,0,0,6.976-9.346,8.633,8.633,0,0,1,2.911-2.334,50.135,50.135,0,0,1,7.99-4.369c3.788-1.606,7.819-2.483,11.541-4.237,2.029-.96,4.764.932,4.869,3.42.276,6.483-1.9,11.051-8.315,14.063-2.382,1.12-5.1,1.9-6.887,3.851-1.566,1.71-3.673,3.3-3.744,6.03a2.08,2.08,0,0,1-.182.877c-2.057,4.077-3.22,8.618-6.446,12.088a5.142,5.142,0,0,0-1.109,4.524c.144.044.282.094.42.143Z" fill="#b4724b"/>
      <path id="Path_4" data-name="Path 4" d="M156.563,214.9a12.985,12.985,0,0,1,2.939-.922.712.712,0,0,1,1,.568c.887,2.979,2.31,5.821,3,8.8.419,1.815,1.412,3.548,1.219,5.655-.1,1.153-.463,2.808.629,4,.314.342.231.844.275,1.3a92.722,92.722,0,0,0,1.417,9.18,29.039,29.039,0,0,1,1.054,7.166c-.078,1.793.562,3.592.573,5.462a44.489,44.489,0,0,1-1.114,8.232c-.287,1.589-2.046,2.835-3.617,3.762a14.755,14.755,0,0,1,.138-4.623c.827-7.619-.414-15.133-.9-22.7-.529-8.182-3.4-15.668-5.855-23.3-.271-.855-.5-1.72-.756-2.581Z" fill="#b4724b"/>
    </g>
    <path id="Path_5" data-name="Path 5" d="M288.724,352.867a32.742,32.742,0,0,1-2.536-3.25c-3.744-6.234-8.8-11.42-13.449-16.926-6.578-7.784-13.923-14.818-21.262-21.869-6.871-6.6-13.708-13.224-21.279-19.028-3.976-3.051-7.99-6.234-12.793-7.774-11-3.525-21.952-7.337-33.779-7.2-3.055.033-6.138-.855-9.17-1.484-4.307-.894-8.762-1.462-12.821-3.034-6.44-2.5-10.724-7.5-13.377-13.881a23.355,23.355,0,0,1-.965-14.465,18.538,18.538,0,0,1,9.622-12.767,8.708,8.708,0,0,1,1.114-.458c3.287-1.186,4-.772,4.5,2.621-.072.066-.144.188-.215.188-3.369-.039-5.95,1.666-8.134,3.95a11.358,11.358,0,0,0-2.619,4.071,21.712,21.712,0,0,0,1.4,17.914c3.518,6.322,8.5,11.183,15.964,12.645,7.311,1.429,14.579,3.067,22.106,3.233a75.1,75.1,0,0,1,20.76,3.9c2.432.762,4.974,1.186,7.406,1.959,6.015,1.925,11.144,5.473,15.946,9.423a330.347,330.347,0,0,1,35.87,34.851c2.939,3.282,5.646,6.774,8.458,10.173.337.408.689.8,1.279,1.495-.661-3.233-1.279-6.052-1.819-8.888a137.289,137.289,0,0,1-1.544-42.646c1.086-8.838.6-17.721.132-26.581a107.956,107.956,0,0,0-.9-11.977,43.446,43.446,0,0,0-5.387-15.685c-1.66-2.737-2.972-5.716-4.874-8.259-1.644-2.2-3.888-3.939-5.9-5.848a3.476,3.476,0,0,0-1.12-.463c.144-.243.281-.491.425-.734.65-.088,1.406-.436,1.924-.215a13.805,13.805,0,0,1,3.987,2.2c8.039,7.349,12,16.932,14.022,27.315.943,4.827.656,9.886,1.092,14.824,1.059,12.066-.469,24.027-1.362,36.015-.529,7.139.353,14.217,1.114,21.29a105.273,105.273,0,0,0,6.187,27.028,36.329,36.329,0,0,0,2.8,5.3c1.015,1.7,1.076,1.666-.794,3.051Zm30.118-129.6c.844-.53,1.616-1.06,2.432-1.512q3.738-2.052,7.5-4.049c3.794-2,7.7-3.813,11.376-6.008,8.232-4.9,16.768-8.9,26.335-10.45,5.718-.926,11.354-2.422,17.094-3.172a75.972,75.972,0,0,1,21.246.486,68.928,68.928,0,0,1,23.126,7.6,31.059,31.059,0,0,1,8.282,6.648,205.225,205.225,0,0,0,21.124,19.828c4.285,3.6,8.955,6.741,13.422,10.134a9.944,9.944,0,0,1,2.2,2.235c3.06,4.513,6.054,9.075,9.065,13.621.938,1.418,1.732,2.952,2.8,4.265,4.312,5.307,6.909,11.4,8.944,17.88a67.459,67.459,0,0,1,2.928,17.395c.221,5.043.871,10.063,1.3,15.1a7.57,7.57,0,0,1-.177,2.08c-.055.27-.468.7-.634.662a1.98,1.98,0,0,1-.854-.662,1.045,1.045,0,0,1-.149-.557c-.4-3.47-.888-6.94-1.175-10.422q-.49-5.991-.717-12c-.215-5.6-2.139-10.769-3.722-16.043a43.923,43.923,0,0,0-7.57-14.234c-1.28-1.661-2.316-3.509-3.48-5.258-2.58-3.873-4.913-7.944-7.841-11.536-2.079-2.554-4.929-4.491-7.505-6.626-1.5-1.241-3.187-2.262-4.7-3.492-3.611-2.935-7.262-5.837-10.724-8.938-4.737-4.242-9.529-8.452-13.89-13.064a30.581,30.581,0,0,0-12.528-7.679c-13.725-4.855-27.786-5.617-42.051-3.134-6.01,1.043-12.032,2.118-17.937,3.619-7.169,1.821-13.78,5.081-20.237,8.684-3.347,1.864-6.948,3.282-10.444,4.882-3.088,1.413-6.2,2.775-9.28,4.21-1.373.623-2.57.734-3.562-.491ZM.023,412.5c-.276-5.01,2.045-8.921,3.325-13.136,2.012-6.654,3.92-13.335,5.993-19.966a18.4,18.4,0,0,1,2.416-5.12c3.771-5.307,6.087-11.348,9.054-17.064,3.655-7.045,7.267-14.1,13.019-19.856,2.845-2.852,4.835-6.543,7.333-9.765A129.542,129.542,0,0,1,74.2,297.9a41.133,41.133,0,0,1,15.352-6.223c3.722-.629,7.312-2.058,10.962-3.133,3.783-1.115,7.56-2.235,11.773-3.476a30.36,30.36,0,0,1-2.774,1.649c-6.452,2.864-12.93,5.606-19.922,6.99-4.82.955-9.132,3.316-13.256,5.9A136.233,136.233,0,0,0,47.753,323.81a80.314,80.314,0,0,0-9.948,14.25c-1.014,1.76-2.487,3.25-3.617,4.949-2.233,3.371-4.367,6.813-6.55,10.217q-6.726,10.485-13.455,20.965c-2.487,3.862-3.551,8.264-4.753,12.589-2.223,7.995-3.926,16.149-7.274,23.79-.363.794-1.411,1.291-2.133,1.931ZM364.085,340.46c1.191.16,1.274,1.015,1.2,1.8-.276,2.841-.474,5.7-.982,8.5-1.929,10.7-3.677,21.444-6.043,32.048-2.277,10.212-5.117,20.3-7.929,30.387q-6.874,24.606-14.061,49.124c-1.941,6.631-4.263,13.147-6.419,19.717-.292.894-.694,1.711-2.244,1.413.331-1.131.678-2.2.965-3.288.827-3.145,1.583-6.312,2.459-9.446,3.055-10.951,6.176-21.891,9.225-32.842,2.851-10.229,5.73-20.446,8.432-30.713,3.049-11.575,6.109-23.155,8.8-34.818,2.4-10.444,4.312-21,6.44-31.513a2.126,2.126,0,0,1,.165-.375ZM149.526,460.023c-.518-4.22-1.064-8.275-1.516-12.347-1.246-11.348-2.63-22.68-3.623-34.051-.97-11.122-1.533-22.283-2.239-33.427a26.863,26.863,0,0,1,.138-4.2c.044-.48.408-1.258.739-1.319a1.345,1.345,0,0,1,1.737,1.2c.21,1.688.419,3.382.59,5.076,1.412,14.1,2.934,28.192,4.169,42.31.794,9.02,1.257,18.079,1.671,27.127A21.93,21.93,0,0,1,149.526,460.023Zm-26.258,39.729c-2.293.474-2.354.458-3.093-1.788-5.52-16.8-11.177-33.548-16.5-50.414-3.237-10.261-5.989-20.683-8.872-31.055a59.836,59.836,0,0,1-1.318-7.084,8.28,8.28,0,0,1,.05-2.979c.115-.529.815-1.263,1.279-1.285a2.322,2.322,0,0,1,1.77.932,4.7,4.7,0,0,1,.513,2.775c-.359-.756-.717-1.512-1.076-2.262l-.27.05a6.653,6.653,0,0,0,.017,1.528c1.56,6.521,2.856,13.13,4.8,19.536,4.9,16.148,10.085,32.213,15.18,48.3,2.4,7.591,4.869,15.166,7.3,22.746A6.376,6.376,0,0,1,123.268,499.752ZM389.362,360.111a17.809,17.809,0,0,1-.535-3.713c.325-5.186.562-10.394,1.274-15.53a231.036,231.036,0,0,0,2.255-25.417,8.831,8.831,0,0,1,.116-.932c1.279-.022,1.72.789,1.742,1.809.1,5.346.441,10.709.149,16.033-.469,8.562-2.255,16.953-4.18,25.3-.182.8-.275,1.616-.408,2.427q-.206.015-.413.022Z"/>
    <g id="Group_2" data-name="Group 2">
      <path id="Path_6" data-name="Path 6" d="M279.742,77.438q.4-1.266.81-2.527c2.079.171,3.254,1.3,3.276,3.283.027,2.13.027,4.264-.155,6.377-.06.69-.7,1.335-1.1,1.992-.116.193-.359.325-.447.53-1.086,2.548-2.151,5.1-3.259,7.745.088.044.524.276.971.47,1.075.463,1.764,1.08,1.312,2.416a2.344,2.344,0,0,0-.006,1.467c1.611,4.166.232,8.088-1.047,11.978-.149.458-1.252.6-1.908.888-.094-.138-.188-.281-.281-.419-.293.777-.579,1.561-.85,2.284,1.418,1.07,2.774,2.1,4.252,3.205-3.215,3.9-6.2,7.525-9.187,11.15a1.936,1.936,0,0,1-.2.221c-1.753,1.517-3.341,3.712-6.038,1.219-.694,1.572-1.3,2.929-1.9,4.3,1.357.944,2.608,1.716,4.136.337-.53.717-1.021,1.468-1.6,2.146q-4.549,5.287-9.148,10.538c-.861.982-1.748,1.991-3.325,1.428-.221-.077-.6.2-.872.359-.253.144-.518.552-.689.508-1.643-.409-1.99.971-2.6,1.881-1.864,2.808-3.661,5.655-5.387,8.325.182-.894.408-2.025.65-3.227-.468-.177-.871-.326-1.45-.541-.171,3.3-.441,6.444.728,9.462.226.579.9.976,1.379,1.462-1.313,1.3-3.314.386-5.658-2.737.226,2.615.458,5.28.7,8.1,1.963.254,2.68,1.732,3.188,3.542.534,1.909,1.312,3.746,1.7,5.876-.926-.828-1.847-1.661-2.906-2.615-.182,1.528-.32,2.957-.54,4.375a38.885,38.885,0,0,1-.772,3.977c-.133.5-.761,1.346-.9,1.3a6.7,6.7,0,0,1-1.814-1.148.887.887,0,0,1-.182-.706c.546-3.724-2.526-6.482-2.686-10.03-.011-.243-.507-.612-.827-.667-5-.9-5.85-2.775-6.484-8.629-.138-1.28-.022-2.587-.022-4.248-4.516,2.885-8.862,5.092-13.791,2.24,2.685-1.23,5.271-2.367,7.808-3.6a8.734,8.734,0,0,0,4.692-5.583c.475-1.584,1.015-3.156,1.351-4.767a16.63,16.63,0,0,1,4.924-8.6c1.826-1.782,3.7-3.536,5.377-5.45a9.736,9.736,0,0,0,2.327-7.834,20.074,20.074,0,0,0-2.868-8.006c-1.411-2.372-3.755-2.99-6.154-3.58-4.857-1.192-9.528-.988-13.9,1.765a9.237,9.237,0,0,0-3.8,4.122,27.324,27.324,0,0,1-1.9,3.4,1.136,1.136,0,0,1-.931.492,1.572,1.572,0,0,1-.938-.85c-.794-2.389,2.68-10.361,5.068-11.376a39.845,39.845,0,0,1,4.946-1.412c.474-.133.954-.249,1.428-.37-.088-2.814.744-5.837-2.73-7.591-.849,1.164-1.836,2.51-2.806,3.861-1.2,1.672-2.537,2.941-4.886,2.34-1.544-.4-2.294-.922-2.139-2.544.3-3.078.81-6.14,1.251-9.208.111-.783.293-1.56.524-2.8-1.819,2.279-3.347,4.21-4.891,6.124q-1.358,1.706-2.779,3.36c-2.288,2.637-3.038,2.819-6.589,1.578-.1,1.523-.2,2.985-.325,4.778,1.047-.458,1.836-.811,2.63-1.153,2.205-.944,6.286.463,7.345,2.576a2.117,2.117,0,0,1,.209,1.3c-.557,2.681-1.18,5.346-1.787,8.033-2.773-.982-3.655-2.284-4.538-6.593-2.911.883-5.161-.668-7.24-2.279-2.156-1.666-1.919-4.2-1.544-6.543.75-4.684,1.638-9.351,2.531-14.013.094-.49.607-.9.927-1.352.446.337.9.673,1.389,1.043.414-.463.927-1.517,1.7-1.782.75-.254,1.776.3,2.856.546.166-.281.431-.744.712-1.2.264-.425.54-.838.843-1.3-2.569-2.9-2.42-6.218-1.439-9.594,1.55-5.351,4.472-10.019,7.538-14.6.11-.16.215-.325.447-.69a14.6,14.6,0,0,0-6.739,3.256,2.632,2.632,0,0,1-3.3.176,1.588,1.588,0,0,1-.844-2.13c.535-1.346,1.136-2.67,1.731-3.988a7.385,7.385,0,0,0,.982-3.592c-.05-1.23.97-2.549,1.643-3.762,3.319-5.98,8.233-10.637,12.953-15.448,1.152-1.175,2.371-2.278,3.6-3.454.943.376.827.95.22,1.656-2.542,2.957-5.139,5.864-7.576,8.9-2.189,2.725-4.213,5.589-6.275,8.419a3.8,3.8,0,0,0-.684,1.986c2.333-1.76,4.593-3.63,7.014-5.258,3.728-2.5,7.565-4.844,11.348-7.266a1.805,1.805,0,0,1,2.487,2.411c-1.66,2.8-3.38,5.55-5,8.37-1.765,3.067-3.441,6.184-5.117,9.208,3.082,1.048,5.062-1.32,7.5-1.959l.331.48c-1.318,1.208-2.669,2.383-3.937,3.641A14.654,14.654,0,0,0,217.08,70.7a54.4,54.4,0,0,0-3.259,7.083c-.678,1.821-.827,3.835-1.456,5.677a30.717,30.717,0,0,1-2.266,4.894c-1.362,2.46-1.417,2.433-4.163,1.81a66.865,66.865,0,0,0-4.654,7.756c-.64,1.446-1.439,2.781-2.051,4.182-.69,1.567-.061,3.4.711,5.407,1.831-2.262,3.545-4.2,5.056-6.284q3.9-5.413,7.582-10.979c.921-1.39,1.98-.772,3.038-.5,1.18.3.778,1.23.646,1.98-.883,4.922-1.8,9.838-2.68,14.759a8.008,8.008,0,0,0-.061,2.289c2.266-3.183,4.307-6.7,9.01-4.027.689-2.091.077-3.658-1.759-4.425a1.779,1.779,0,0,1-1.3-1.936c.132-1.694.22-3.393.4-5.081.232-2.08.48-4.16.861-6.213.11-.59.65-1.5,1.075-1.55a1.5,1.5,0,0,1,1.764,1.584c-.033,1.34-.248,2.68-.358,4.021-.21,2.494-.43,4.982-.579,7.482a4.061,4.061,0,0,0,.43,1.346c.149-.039.3-.078.447-.11.463-1.987.893-3.973,1.411-5.942.094-.365.546-.635.833-.95.226.4.678.823.645,1.2-.419,4.783-.926,9.555-1.356,14.333-.1,1.164-.017,2.35-.017,3.525.2.033.4.072.59.105.965-3.271,2.062-6.51,2.862-9.82,1.092-4.518,1.957-9.092,2.906-13.644.215-1.031.386-2,1.852-1.732.221.039.646-.37.783-.657,2.361-5.13,4.687-10.272,7.02-15.408.039-.083.016-.188-.281-.6-.5.612-1.02,1.208-1.495,1.837-.468.612-.893,1.258-1.34,1.887-.148-.11-.292-.227-.441-.337,1.484-1.848,2.945-3.718,4.489-5.517.154-.176.965-.083,1.18.15a2.571,2.571,0,0,1,.8,1.6,8.194,8.194,0,0,1-.777,2.41c-1.434,3.52-2.89,7.029-4.334,10.543a1.881,1.881,0,0,0-.122,1.352c1.429-2.786,2.829-5.59,4.3-8.353a43.585,43.585,0,0,1,2.68-4.508c.392-.557,1.3-1.219,1.82-1.114a2.177,2.177,0,0,1,1.913,2.334q-.279,2.989-.766,5.953c-.667,4.093-1.4,8.176-2.084,12.27a9.788,9.788,0,0,0-.011,1.616c.132.088.259.176.391.26a10.952,10.952,0,0,0,1.88-2.224c1.4-2.985,2.614-6.058,3.971-9.06.838-1.864,1.775-3.69,2.729-5.5.6-1.147,1.379-1.98,2.614-.634.788-1.214,1.516-2.323,2.216-3.448a.958.958,0,0,0,.039-.58c-.27-2.068-.551-4.132-.827-6.206-1.8,1.28-3.673,2.66-5.6,3.956-1.9,1.285-2.454,1.23-4.45-.177s-2.41-2.2-1.82-4.27c.811-2.836,1.771-5.627,2.664-8.44.116-.37.209-.74.441-1.557-1.682,1.766-3.011,3.239-4.417,4.629-2.906,2.863-4.731,2.775-7.218-.524a3.524,3.524,0,0,1-.347-2.8c.86-2.659,1.979-5.235,3.01-7.834a10.441,10.441,0,0,0,.767-2.229Q240.156,47.5,237.7,49.24c-.447.32-.882.657-1.335.971-1.781,1.23-2.922,1.065-4.1-.744a2.071,2.071,0,0,1-.127-1.65c1.015-2.554,2.14-5.065,3.231-7.591.171-.392.364-.773.728-1.528-2.283,1.61-4.2,3.006-6.17,4.341a10.889,10.889,0,0,1-2.134,1.082c-1.373.551-2.266-.3-3.149-1.164a1.843,1.843,0,0,1-.159-2.483c3.1-5.18,6.109-10.427,9.434-15.464,1.423-2.152,2.807-4.193,3.193-7.084-1.98,1.424-3.755,2.742-5.575,3.994s-3.689,2.4-5.481,3.675c-1.257.9-1.8-.089-2.454-.79-.794-.849.1-1.218.557-1.66a32.609,32.609,0,0,0,3.739-3.978c-1.528.5-3.049,1.038-4.588,1.507a33.228,33.228,0,0,1-3.479.9,4.483,4.483,0,0,1-4.969-1.92c-1.146-1.644-.2-2.813.7-4.275-1.263.2-2.327.364-3.386.524l.37.353a7.913,7.913,0,0,1-1.186,1.992c-2.211,2.013-4.51,3.928-6.639,6.206,1.572-.281,3.143-.59,4.72-.833,3.562-.546,5.928.927,6.722,4.232.97-.133,1.946-.32,2.933-.386a8.6,8.6,0,0,1,2.983.286,6.041,6.041,0,0,1-1.566,1.12,96.507,96.507,0,0,1-9.368,2.66c-.717.149-1.726-1.1-2.84-1.882,1.522-1.158,2.653-2.024,3.783-2.885-.017-.1-.028-.193-.044-.293a10.791,10.791,0,0,0-1.787.122c-3.01.734-6.01,1.545-9.021,2.278-1.3.315-3.507-1.153-3.562-2.455a2.373,2.373,0,0,1,.921-1.572c2.867-2.334,5.795-4.607,8.7-6.89a2.968,2.968,0,0,0,1.031-1.132q-3.523.885-7.052,1.766c.088.1.171.21.259.32a8.024,8.024,0,0,1-1.544,1.743c-2.763,1.716-5.58,3.343-8.4,4.97-1.941,1.12-2.2,1.021-3.446-1.23,2.112-1.24,4.235-2.488,6.352-3.734-.044-.127-.094-.254-.138-.381-3.137.778-6.28,1.55-9.418,2.34a12.018,12.018,0,0,1-2.316.617,8.281,8.281,0,0,1-2.145-.519,6.826,6.826,0,0,0-1.974-.452,57.5,57.5,0,0,1-6.391.557,8.654,8.654,0,0,1-3.766-1.55A2.107,2.107,0,0,1,167.591,18c-2.642.618-4.935,1.3-7.284,1.661a39.732,39.732,0,0,1-6.568.414,6.917,6.917,0,0,1-2.757-1.015c-.314-.16-.446-.684-.661-1.043.452-.254.887-.679,1.356-.723a10.8,10.8,0,0,1,2.217.27c-.712.16-1.3.287-1.9.42.033.182.071.37.1.552,2.007-.32,4.036-.52,6.01-.977,4.378-1.015,8.723-2.18,13.1-3.222a33.24,33.24,0,0,1,3.562-.474c2.057-.26,2.873.17,4.075,2.284-3.27.612-6.33,1.61-8.994,4.347,6.358.154,11.663-2.521,17.3-3.752-.838-2.466-.579-3.1,1.665-4.341a9.778,9.778,0,0,0,1.946-1.28c-1.841.115-3.689.226-5.53.353-2.846.187-5.7.353-8.536.59a4.283,4.283,0,0,1-4.356-2.052,1.592,1.592,0,0,0-2.112-.75c-5.288,1.478-10.6,2.885-15.881,4.413a3.7,3.7,0,0,0-2.757,2.494c-.209.64-1.362.976-2.371,1.633.474-1.655.546-3.25,1.34-4.3a7.531,7.531,0,0,1,3.606-2.422c3.436-1.06,6.965-1.8,10.455-2.665q.744-.193,1.483-.4c-.176-.569-.336-1.076-.551-1.771,1.081-.227,2.106-.353,3.082-.657,3.48-1.076,6.921-2.284,10.422-3.294a21.4,21.4,0,0,1,4.692-.717,2.843,2.843,0,0,1,2.19.712c.766,1.148,1.665.717,2.6.695,1.313-.039,2.63-.01,3.728-.01.408-.47.728-1.182,1.207-1.33A33.381,33.381,0,0,1,211.521.923c.938.237,1.566,1.693,2.647,2.946,6.077.49,12.115,3.288,18.406,5.18.315.094.894.249.954.144.9-1.545,1.9-.508,2.614.022a62.254,62.254,0,0,0,11.205,6.03c1.345.623,2.36,1.942,3.567,2.89a5.548,5.548,0,0,0,1.528.762,13.673,13.673,0,0,1,2.729.916c3.347,2.185,6.6,4.518,9.931,6.736a17.089,17.089,0,0,1,6.689,9c.606,1.827.468,4.138.948,6.185q1.337,5.706,2.823,11.376a3.04,3.04,0,0,0,1,1.307,5.79,5.79,0,0,1,2.178,2.952c1.29,5.241,2.7,10.45,4.031,15.68a16.286,16.286,0,0,1,.182,2.333,31.872,31.872,0,0,1-4.351-10.118c.193,1.55.474,3.1.568,4.65.121,2.07.072,4.155.165,6.23.017.374.375.728.574,1.1.016.028-.011.094-.039.122a.36.36,0,0,1-.132.077c-.237,1.434-.469,2.869-.734,4.463l-.623-1.3c-.4,3.194-.761,6.03-1.119,8.866.154.038.309.083.463.121a28.083,28.083,0,0,0,1.318-4.33c.375-2.588.48-5.209.7-7.818ZM211.963,7.488c.6-.447,1.207-.888,1.93-1.423h-3.546l1.665,1.384c.248.729.5,1.451.838,2.444-5.15,1.4-10.212,2.775-15.274,4.155,4.224-.624,8.354-1.617,12.517-2.4,2.167-.4,4.489-1.065,6.551.342,1.533,1.043,2.934.552,4.433.056,2.5-.828,5.018-1.584,7.858-2.472-5.757-2.124-11.254-3.018-16.972-2.091Zm64.288,94.8c.524-2.245,1.043-4.5,1.484-6.372-1.566-1.092-2.752-1.925-3.981-2.786-.458,1.02-.982,2.306-1.616,3.537-.336.65-.607,1.191-1.577.286a3.549,3.549,0,0,1-1.026-3.508c.193-1.54.331-3.079.491-4.618-2.889,5.693-4.406,11.894-7.543,17.389-2.647-1.009-2.823-1.368-2.046-3.834.182-.574.4-1.131.6-1.694,1.825-5.13,3.7-10.25,5.448-15.409a43.1,43.1,0,0,0,1.086-5.092c-1.621-.154-2.261.31-3.237,2.086.171-2.257,1.947-3.481,3.816-2.682V74.773c-.673.717-1.318,1.986-2.062,2.047-.9.077-1.9-.855-2.647-1.247-.446,3.807-.816,7.625-1.373,11.42-.469,3.19-1.086,6.361-1.77,9.511-.452,2.075-1.13,4.094-1.764,6.334a13.766,13.766,0,0,1-1.638-.855c-1.45-1.065-2.2-.993-2.939.651-1.654,3.7-3.209,7.442-4.742,11.194a29.145,29.145,0,0,0-.932,3.249,2.053,2.053,0,0,0,.948-.877c1.881-2.825,3.772-5.649,5.641-8.479.866-1.308,1.958-1.38,3.353-.635-1.081,3.735-2.983,7.255-3.154,11.249a2.562,2.562,0,0,0,1.07-1.087q2.316-4.623,4.576-9.274c.855-1.76,1.6-1.98,3.469-.849-.508,2-.965,4.044-1.555,6.046-.3,1.015-.149,1.6.959,1.8,1.737-2.063,3.5-4.11,5.2-6.2a3.842,3.842,0,0,0,.651-1.5c.468-1.975.926-3.955,1.306-5.953.315-1.644,1.4-2,2.906-1.953-.033.5-.066.933-.093,1.369l-1.4,5.781c.188.033.381.072.568.105l.794-5.92a13.6,13.6,0,0,1,.794-1.594c.2-.3.629-.706.877-.662a1.232,1.232,0,0,1,.756.844c.187.993.231,2.014.336,3.029l-.612-.706-.6,5.809c.16.017.32.039.48.055.226-1.732.463-3.464.694-5.2Zm-1.345-37.151c1.092.16,1.4-.077,1.186-1.037q-1.106-4.9-2.377-9.76c-.96-3.69-1.985-7.36-3.1-11.47-.21,3.962-.4,7.476-.584,11.056-2.223-.645-3.188-1.837-2.984-3.724.5-4.5-1.334-8.275-3.622-11.938.22,1.859.667,3.674.92,5.517a12.872,12.872,0,0,1,.028,3.713c-.215,1.357-.921,1.589-2.013.767a22.582,22.582,0,0,1-2.426-2.23c-.7-.711-1.329-1.5-2-2.261-.248,1.285-.458,2.41-.7,3.53a9.74,9.74,0,0,0-.331,1.12,19.556,19.556,0,0,1-.259,3.758c-.871,3.028-1.968,5.991-2.972,8.976-.364,1.087-.739,2.173-1.1,3.26.116.078.232.15.342.226,1.235-.993,2.553-1.9,3.678-3.006,2.393-2.334,3.452-5.468,4.781-8.43.187-.42.452-1,.8-1.115,1-.3,2.829,1.65,2.685,2.7-.634,4.606-1.34,9.2-1.836,13.82a9.363,9.363,0,0,0,1.02,5.572c.171.038.348.071.519.11q2.448-7.15,4.9-14.289c2.349.806,2.862,1.451,2.779,3.686-.11,2.9-.347,5.787-.413,8.689-.072,3.354-.017,6.714-.017,10.074l.37.066c.231-.585.468-1.17.683-1.766,1.125-3.056,2.289-6.09,3.325-9.174a5.237,5.237,0,0,0,.193-2.731,23.654,23.654,0,0,0-1.483-3.713ZM250.793,92.4c-.27.314-.579.706-.915,1.076-1.258,1.379-2.085,1.467-3.684.568a4.044,4.044,0,0,1-2.288-3.923,50.873,50.873,0,0,1,.75-6.543c.639-3.321,1.477-6.6,2.233-9.9l-.364-.166c-.7,1.175-1.412,2.34-2.1,3.52-2.316,3.956-4.593,7.934-6.953,11.867-.7,1.164-1.7,1.892-3.3.723-.745,7.012-1.732,13.781.231,20.611a29.5,29.5,0,0,0,1.958-5.588c.915-4.044,1.693-8.116,2.52-12.176.16-.778.32-1.529,1.406-1.253,1,.254,1.864.491,1.709,1.92q-.393,3.654-.457,7.332a15.393,15.393,0,0,0,1.042,7.25c3.441-4.811,6.666-9.313,9.87-13.8q-.824-.765-1.654-1.523ZM236.186,45.792l.59.409c3.4-2.842,6.821-5.666,10.174-8.557a2.221,2.221,0,0,0,.534-1.572,43.673,43.673,0,0,0-.347-4.64c-.436-3.393.766-6.836-.32-10.212-.055-.177.221-.442.221-.662,0-.381.027-.883-.188-1.1a1.105,1.105,0,0,0-1.053-.022,17.644,17.644,0,0,0-3.259,2.345c-2.371,2.477-4.6,5.092-6.936,7.712l-1.473-.872c-2.349,4.166-4.659,8.265-6.975,12.364l.375.31c1.218-.9,2.443-1.788,3.65-2.7,2.746-2.074,5.448-4.215,8.249-6.212,1.406-1,2.206-.712,3.485.6,1.114,1.142.044,1.765-.474,2.527-.309.452-.717.844-1,1.313-1.759,2.979-3.5,5.98-5.255,8.97Zm17.54.243a8.4,8.4,0,0,0,.861-2.18c.193-2.382.38-4.75-1.1-6.95a8.086,8.086,0,0,1-1.505-6.411c.243-1.093.86-1.462,1.632-.635a9.6,9.6,0,0,1,2.156,3.128,24.963,24.963,0,0,1,1.274,5.7c.314,3.045,2.558,4.794,4.3,7.017a7.893,7.893,0,0,0,.358-3.216c-.546-3.211-1.2-6.4-1.9-9.583a7.867,7.867,0,0,0-2.883-5.109,5,5,0,0,1-.8-.954,2.022,2.022,0,0,1,1.44.424c4.9,3.73,6.65,9.628,10.024,14.642.243-1.936.48-3.712.69-5.489.049-.436.209-1,.011-1.3-1.644-2.433-2.95-5.125-5.492-6.863-2.1-1.434-4.108-3.007-6.187-4.48a2.137,2.137,0,0,0-1.092-.292c-1.1-.039-2.211-.011-3.242-.011.705,1.092,1.494,2.311,2.294,3.547-2.25,1.114-3.458-.348-4.891-1.418-.034,3.123.1,6.107.242,9.092.066,1.352.155,2.681,1.257,3.713a1.275,1.275,0,0,1,.122,1.07,6.75,6.75,0,0,0,2.42,6.56ZM222.461,48.6l-.281-.265c-1.009.64-2.057,1.219-3.016,1.925-4.748,3.5-9.385,7.15-14.237,10.488-2.449,1.688-2.581,4.309-3.673,6.576a11.462,11.462,0,0,0,1.93-.982,11.3,11.3,0,0,1,6.705-1.727c2.912.27,3.358,1.192,1.825,3.67A57.64,57.64,0,0,0,204.965,82.3a11.5,11.5,0,0,0-.529,5.986,47.547,47.547,0,0,0,4.621-6.99c1.941-3.879,3.589-7.9,5.315-11.884a1.4,1.4,0,0,0-.121-1.252c-1.583-1.275-1.412-2.836-.651-4.337q2.407-4.744,5.062-9.356c1.164-2.014,2.531-3.917,3.8-5.87Zm7.985,57.768-3.265,8.209c8.729.773,13.863,6,17.011,13.9l.624-3.387c1.494-.171,2.007.469,1.924,1.727-.039.552-.055,1.1-.083,1.649l-.5,10.063c.226.039.452.083.678.122.987-3.31,1.98-6.626,2.994-10.041-3.507-.684-1.4-3.31-2.277-4.872-.132.039-.331.166-.5.133a7.219,7.219,0,0,1-2.575-.668c-.264-.176.094-1.379.248-2.1.32-1.5.69-2.984,1.037-4.474-1.208.844-2,2-3.093,2.549a4.76,4.76,0,0,1-3.342.248c-1.185-.4-1.037-1.738-.579-2.736.954-2.075,2.007-4.105,3.049-6.141.309-.6.734-1.131,1.23-1.887a3.7,3.7,0,0,1-3.921-2.78c-.683,1.743-1.273,3.26-1.869,4.778-.579,1.467-1.676,1.826-3.148,1.561a3.417,3.417,0,0,1-2.768-2.455c-.359-1.07-.574-2.207-.877-3.393Zm4.2,60.212-.281-.414c0-1.748-.077-3.5.022-5.246.088-1.578,0-3.277,1.5-4.4q-.124-3.864-.243-7.735c-3.005,2.864-3.534,6.7-4.571,10.19a8.921,8.921,0,0,1,.91,2.621c.336,2.328.529,4.678.854,7.012.177,1.252.508,2.488.772,3.729.144.05.293.1.436.155a4.352,4.352,0,0,1,.243-.552c.193-.353.424-.684.6-1.042,1.058-2.13,1.058-2.13,3.468-1.8.077.011.165-.061.248-.094.331-4.088-.353-6.493-2.283-7.762-.209,1.467-.347,2.9-.656,4.292-.1.414-.673.706-1.02,1.048Zm27.24-47.347c-.006,4.883-3.535,8.419-4.638,12.916-.617-.171-1.185-.331-1.8-.5q-.324.979-.65,1.958c-.629-.127-1.087-.22-1.572-.32v3.939c1.1-1.793,1.947-3.177,2.785-4.54,1.477.381,2.051,1.015,1.191,2.378-1.087,1.732-2.112,3.5-3.165,5.257-.728,1.209-1.462,2.411-2.189,3.62.148.126.3.259.446.386a9.391,9.391,0,0,0,1.235-1.093c.623-.761,1.054-2.113,1.759-2.262,1.131-.237,1.379-.937,1.814-1.666.491-.816.982-1.627,1.467-2.449q1.852-3.129,3.7-6.262c-.171-.143-.336-.292-.507-.436-.336.6-.667,1.2-1,1.8-.005-.916.5-1.926.265-2.157-.766-.751-.331-1.358-.121-2.031.915-2.973,1.841-5.942,2.817-9.1-.755.231-1.224.38-1.83.562Zm8.91,2.285.348.115q2.1-2.854,4.2-5.726c-3.094-1.887-3.088-1.887-2.967-5.644.022-.745.006-1.5.006-2.472-1.307,1.661-2.432,3.051-3.518,4.469a25.086,25.086,0,0,0-3.243,4.474c-.7,1.534-.711,3.371-1.075,5.352,1.39-1.788,2.586-3.316,3.772-4.85.546-.7,1.136-1.109,2.023-.524.816.541,1.616,1.021,1.136,2.251-.309.822-.457,1.7-.684,2.555ZM232.613,12.685c-.138-.188-.281-.375-.419-.563L219.561,15.19q-1.412,2.01-2.829,4.016c4.809-.05,8.8-3.332,13.7-2.085q1.092-2.219,2.178-4.436ZM205.787,2.462a47.39,47.39,0,0,0-12.892.993c1.411,1.114,1.913,2.157.033,3.5,5.012-.425,9.462-.806,13.868-1.18l-1.009-3.311ZM261.049,75.27l-.5-.116c-1.908,6.14-3.821,12.275-5.757,18.5.441.144,1.23.409,2.14.706,2.067-6.272,3.964-12.49,4.113-19.088ZM242.7,141.391q-2.721,2.326-5.448,4.645c.64,4.237,1.18,7.834,1.721,11.431a1.865,1.865,0,0,0,.672-1.164c.182-1.738.348-3.487.43-5.23.056-1.125.353-1.821,1.666-1.666.342.038.722-.232,1.367-.458-3.231-1.142-3.259-1.186-2.029-3.967.579-1.3,1.175-2.593,1.621-3.591Zm-8.31-125.148a8.075,8.075,0,0,1,1.588-1.086c.7-.31,1.655-.712,2.228-.464a2.482,2.482,0,0,1,1.577,2.913l-.661,3.117,5.514-3.464a30.61,30.61,0,0,1-3.711-1.446c-1.412-.761-2.609-1.964-4.064-2.6-1.677-.729-3.336-1.23-3.11-3.487H230.5c1.153,1.037,2.377,1.754,3.011,2.825.612,1.037.612,2.438.882,3.69ZM245,53.4c.082.05.159.1.242.15,2.41-2.285,4.825-4.569,7.3-6.908-.893-1.01-1.869-2.113-2.989-3.382C247.992,46.725,246.492,50.063,245,53.4Zm4.389,72.311c2.928-2.863,2.106-6.9,3.176-10.576C249.773,118.308,247.727,121.519,249.387,125.711ZM193.264,4.823c-1.808-.254-8.751,1.733-10.719,3.134,2.779-.26,5.288-.618,7.808-.69A2.668,2.668,0,0,0,193.264,4.823Zm48.243,113.038a52.605,52.605,0,0,0,7.913-12.088C246.205,109.425,242.875,113,241.507,117.861Zm9.887,8.38c3.005.5,1.516,2.836,1.93,4.386.121-.011.242-.016.364-.028v-9.075q-.1-.015-.193-.039Zm7.968-8.915c-.138-.078-.281-.149-.419-.227a14.732,14.732,0,0,1-2.03,2.522c-1.676,1.351-1.51,3.017-1.2,4.976,1.274-2.532,2.465-4.9,3.651-7.271ZM177.125,5.215c.044.171.088.337.126.508q4.2-1.143,8.4-2.279c-.039-.132-.072-.27-.11-.4-3.066-.27-5.719,1.06-8.42,2.174Zm77.147,90.694c-1.147,1.616-2.1,2.973-3.165,4.468C253.627,100.444,254.509,99.2,254.272,95.909Zm22.492-40.418c-.165.028-.331.06-.5.089q.96,3.177,1.913,6.36c.094-.027.188-.049.282-.077Q277.619,58.677,276.764,55.491Zm-31.314,88.1c-1.6-.606-1.958-.226-2.184,2.345C244.093,145.037,244.738,144.348,245.45,143.586Zm21.6,249.037c.369-1.782.639-3.5,1.086-5.181q1.4-5.3,2.956-10.548a26.2,26.2,0,0,0,.876-9.517c-.071-.943-.143-1.881-.22-2.979a3.181,3.181,0,0,1,3.066,2.091c1.869,4.016,1.709,8.143.744,12.347-1.241,5.412-2.492,10.824-3.551,16.275a25.438,25.438,0,0,0,.044,5.015c.044,3.509.11,7.029-1.323,10.333-.315.728-.783,1.848-1.952.668-.193-.193-.745-.05-1.125-.028-.844.061-1.693.232-2.537.21-4.361-.121-5.657-1.3-6.611-5.605a16.315,16.315,0,0,1,1.334-11.658c1.142-2.129,2.09-2.615,4.489-2.19a27.375,27.375,0,0,1,2.724.767Zm-3.2.541a1.742,1.742,0,0,0-.276.325c-2.669,4.993-2.145,10.03-.121,15.056a3.4,3.4,0,0,0,.97,1.12c.728.634,1.329.612,1.991-.248a5.762,5.762,0,0,0,1.23-4.475c-.364-2.824-.739-5.655-.916-8.5-.171-2.775-.11-2.841-2.878-3.282ZM247.9,390.62c.794-5.274,1.66-10.4,2.3-15.558.358-2.885-1.031-4.926-3.772-5.919-2.465-.894-4.985-1.628-7.8-2.533a5.991,5.991,0,0,1,2.045-.231,70.876,70.876,0,0,1,9.86,3.056c3.65,1.638,5.028,4.375,4.521,8.264-.568,4.364-1,8.75-1.428,13.131a12.185,12.185,0,0,0,.127,3.293,25.473,25.473,0,0,1-.441,9.948,16.745,16.745,0,0,1-2.906,5.665c-1.048,1.49-4.522,1.479-6.413.183a9.426,9.426,0,0,1-4.059-5.926c-.783-3.668-.827-7.249,1.351-10.57a5.462,5.462,0,0,1,5.117-2.8c.53.022,1.07,0,1.495,0Zm-.5,18.785c.761-1.252,1.417-2.366,2.1-3.459a4.99,4.99,0,0,0,.623-4.137c-.7-2.759-1.213-5.573-1.693-8.381-.182-1.076-.64-1.969-1.66-1.991a2.972,2.972,0,0,0-2.007,1.136c-2.178,2.792-2.084,6.058-1.665,9.34a11.167,11.167,0,0,0,4.3,7.492Z" fill="#1e1919"/>
      <path id="Path_7" data-name="Path 7" d="M212.288,149.28c.965-2.493.369-6.107,2.156-9.235,1.163-2.036,1.924-4.325,3.209-6.267a94.872,94.872,0,0,1,6.06-7.994c1.285-1.551,2.807-.138,3.843.413a10.237,10.237,0,0,1,3.452,3.4,16.823,16.823,0,0,1,1.7,4.309c.551,1.766.188,2.814-1.478,3.619-1.7.822-3.6,1.225-5.3,2.031a21.087,21.087,0,0,0-4.549,2.769c-1.44,1.208-1.236,2.659.193,3.812,1.941,1.562,2.023,3.31.341,5.308a6.906,6.906,0,0,0-1.213,2.063,3.542,3.542,0,0,1-5.569,1.837,6.3,6.3,0,0,1-2.845-6.069Zm7.857-10.256c2.388-.932,4.583-1.715,6.722-2.637,3.777-1.627,4.1-2.455,2.741-6.289-.783-2.2-1.362-2.328-3.281-.9-3.331,2.477-4.263,6.388-6.182,9.825Zm58.466,282.243c-.441.855-.816,1.754-1.334,2.56-2.923,4.546-5.917,9.048-8.817,13.61a23.248,23.248,0,0,1-10.565,8.8c-8.139,3.6-15.258,8.408-19.642,16.48-.882,1.627-1.7,3.288-2.553,4.937-.59,1.153-1.389,1.363-2.591.806a1.663,1.663,0,0,1-.965-2.516c3.132-7.691,7.891-14.035,15.18-18.222,2.906-1.667,5.911-3.162,8.9-4.684,4.963-2.527,8.618-6.5,11.839-10.88a47.267,47.267,0,0,1,10.548-10.9Zm-39.547-15.3c-1.6-.37-3.2-.745-4.736-1.1a4.142,4.142,0,0,1-1.2.772,71.725,71.725,0,0,0-15.567,5.407c-1.7.8-3.462,1.732-5.442.75-.425-.209-.827-.469-1.5-.855a44.424,44.424,0,0,1,21.825-7.155c-.54-2.257-1.048-4.513-1.638-6.742a2.282,2.282,0,0,0-.843-.96,7.194,7.194,0,0,1-2.708-7.056c.05-.4.6-.745.91-1.109a4.1,4.1,0,0,1,.485,1.219,9.452,9.452,0,0,0,2.1,6.2,37.156,37.156,0,0,1,.645-4.911c.745-2.835,1.7-5.621,2.636-8.407a2.377,2.377,0,0,1,1.037-1.225c.965-.53,1.924.27,1.792,1.478-.392,3.482-.971,6.946-1.2,10.438-.215,3.239-.3,6.527.86,9.661.424,1.147.656,2.493,2.338,2.493.143,0,.281.359.424.547-.071.187-.143.369-.215.557ZM134.037,73.113c2.151.105,4.3.193,6.446.325a3.9,3.9,0,0,1,1.031.38,4.36,4.36,0,0,0-.54.972,11.815,11.815,0,0,0-.193,1.666c-2.15-.116-4.378-.215-6.6-.359-1.467-.093-2.967-.353-3.651,1.468.679.292,1.5.645,2.316,1-.022.132-.038.265-.06.4-.458.082-.916.187-1.373.242-1.588.205-3.171.458-4.765.552a12.046,12.046,0,0,1-2.161-.392,3.574,3.574,0,0,0-1.368.017c-1.571.408-2.084.105-2.459-1.633-1.472.563-2.128-.53-2.613-1.528-.182-.38.347-1.1.86-1.606-.16-.347-.315-.695-.513-1.125a5.582,5.582,0,0,1,.91-.519c3.5-1.18,7-2.322,10.493-3.514a1.959,1.959,0,0,1,2.178.33,3.324,3.324,0,0,0,2.084.315c2.686-.149,5.371-.419,8.057-.54.43-.022.871.5,1.334.7a3.544,3.544,0,0,0,1.268.37,18.911,18.911,0,0,1,1.9-.166c.4.05.749.48,1.124.74-.071.21-.143.414-.215.623H132.56c.5.59.656.778.816.96a7.449,7.449,0,0,0-4.627.883c2.1.877,3.645-.353,5.288-.568ZM138.548,96.7l1.919,7.718-.552.37a12.265,12.265,0,0,1-2.564-2.041,35.6,35.6,0,0,1-2.283-4.088c-.479-.872-.942-1.43-2.222-1.065-2.007.568-3.744-.375-5.315-1.633a5.327,5.327,0,0,0-1.842-1.054,4.364,4.364,0,0,1-3.452-3.89c2.6.492,5.046.939,7.488,1.419.949.187,1.544-.05,1.726-1.087a8.97,8.97,0,0,1,.485-1.413c.668-1.92-.159-3.382-1.417-4.728a9.56,9.56,0,0,1-.661-1.02c2.062.606,3.788,1.02,5.448,1.627,2.111.767,4.179,1.66,6.242,2.555a6.42,6.42,0,0,1,2.029,1.23c.331.33.264,1.054.457,1.992l-9.148-3.956c-.468,1.776-.9,3.448-1.433,5.462,3.794.678,7.609,1.5,11.469,2.013a17.293,17.293,0,0,1,7.7,3.062,2.673,2.673,0,0,1,.6.668,7.668,7.668,0,0,1,.4,1.087C148.528,97.641,143.477,97.271,138.548,96.7Zm88.468-30.906c.75.144,1.682.06,2.123.491a2.437,2.437,0,0,1,.457,2.058c-1.571,5.285-4.157,10.113-6.672,14.973-1.307-.4-1.213-1.23-.888-2.069,1.169-3.029,2.372-6.04,3.568-9.053.177-.447.353-.888.535-1.33l-.4-.215-5.1,8.016c-.419.657-.507,1.793-1.776,1.17-1.113-.552-1.786-1.247-1.108-2.593,2.735-5.434,5.481-10.868,8.15-16.341.877-1.8,1.494-3.724,2.332-5.54a14.242,14.242,0,0,1,1.792-2.907c.32-.4,1.3-.844,1.5-.678a2.794,2.794,0,0,1,1.12,1.82,7.311,7.311,0,0,1-.894,2.825c-1.593,3.222-3.242,6.422-4.736,9.373Zm-107.889,58.6a9.663,9.663,0,0,1,1.643,1.98c.684,1.5,1.1,3.106,1.726,4.629.3.75.871,1.39,1.219,2.129a3.04,3.04,0,0,1,.38,1.617c-.182,1.192-.557,2.356-.871,3.619-.325-.243-.695-.524-1.092-.822-2.178,1.462-4.433,2.367-7.091,1.479-.276-.094-.777.264-1.086.518-2.537,2.091-5.316,3.194-8.6,2.1-1.726-.574-1.9-1.611-.535-2.841.369-.337.772-.64,1.152-.96s.75-.636,1.12-.96c-3.375.414-5.288,2.168-6.43,6.058a8.062,8.062,0,0,1-2.227-1.418c-.568-.734.253-3.332,1.02-4.017,3.358-2.984,9.782-3.884,13.735-1.881a13.067,13.067,0,0,1,1.682,1.208c2.52-.816,3.854-2.913,5.194-4.954.221-.342-.022-1.037-.148-1.545-.453-1.87-.949-3.729-1.429-5.588.21-.116.425-.232.64-.353ZM220.879,444.317c-1.092-1.445-1.086-2.03.347-3.023,2.427-1.683,4.963-3.2,7.417-4.855,5.4-3.63,10.819-7.249,16.167-10.957a21.236,21.236,0,0,1,7.257-3.106c.353-.083.788.188,1.185.293-.259.424-.419.993-.794,1.258-2.6,1.864-5.277,3.624-7.868,5.505a170.635,170.635,0,0,1-23.088,14.6c-.171.089-.358.166-.623.287Z" fill="#1e1919"/>
      <path id="Path_8" data-name="Path 8" d="M223.763,402.9c-.436-1.07-.888-2.008-1.2-2.984-1.417-4.469-2.779-8.954-4.185-13.429-.976-3.1-1.318-6.151.425-9.136.551-.949.948-1.991,1.516-2.929a4.959,4.959,0,0,1,1.147-1,4.177,4.177,0,0,1,.585,1.5,19.036,19.036,0,0,1-.458,3.564c-.761,3.321.027,6.455,1.075,9.55.915,2.7,2.029,5.329,2.862,8.049a13.962,13.962,0,0,1,.419,3.989c.011,1.324-.86,2.14-2.189,2.824ZM236.98,64.23c-1.566,1.914-3.132,3.823-4.858,5.93a17.563,17.563,0,0,1,5.233-7.646,1.724,1.724,0,0,1,1.66,0c.507.447,1.1,1.352.965,1.881a42.465,42.465,0,0,1-2.123,6.383c-2.256,5.17-4.649,10.279-7,15.4-.348.761-.8,1.473-1.2,2.185-2.117-.635-2.442-.955-1.709-2.864,1.434-3.724,3.016-7.387,4.681-11.012,1.533-3.337,3.254-6.592,4.891-9.88-.176-.127-.358-.254-.54-.381ZM154.428,215.749c.855-.618,1.472-1.114,2.134-1.534,4.472-2.83,8.8-5.941,13.482-8.374,3.59-1.871,6.446-4.491,9.446-7.035,1.218-1.031,2.277-.353,3.573.4-3.143,2.433-5.084,5.732-8.552,7.8-5.421,3.238-10.924,6.25-16.592,9A3.234,3.234,0,0,1,154.428,215.749Zm-34.871-53.581a5.37,5.37,0,0,1-5.376-.944c-1.6-1.1-3.066-2.4-4.6-3.6-1.952-1.534-4.224-1.369-6.4-.9-1.4.3-1.627,1.54-1.384,3.818.148,1.407,1.2,1.363,2.073,1.44,2.592.237,5.238.1,7.775.585,4.306.822,8.811.734,12.908,2.626a3.607,3.607,0,0,0,1.588.116,3.172,3.172,0,0,1,3.16,1.368,7.69,7.69,0,0,1-1.825.48,5.689,5.689,0,0,1-2.057-.386c-4.163-1.65-8.63-1.589-12.947-2.367-3.336-.6-6.727-.888-10.074-1.44a11.882,11.882,0,0,1-2.642-1.01,9.894,9.894,0,0,0-.022-1.826,10.134,10.134,0,0,0-.617-1.528c-.805-1.914.044-3.586,2.123-3.58,4.152.005,8.26.055,11.706,3.2,1.489,1.358,3.055,3.084,5.437,3.167C118.675,161.39,118.939,161.732,119.557,162.168ZM104.151,180c-.728-.4-1.323-.728-2.1-1.153,2.426-2.4,5.944-1.909,8.85-3.9-3.248-.348-6.109,1.754-9.12-.216,2.426-.54,4.577-1.147,6.771-1.473a8.657,8.657,0,0,1,6.011,1.44c1.119.718,1.2,1.931.049,2.334-2.156.75-3.33,2.753-5.282,3.719-1.252.617-2.432,1.379-3.684,2-.435.215-1.34.38-1.422.226a5.009,5.009,0,0,1-.508-1.92c-.027-.3.248-.635.436-1.054Zm9.258-67.18c-.854,2.323-.391,4.9-2.68,6.471-.485.332-.518,1.258-.876,1.838-.894,1.423-1.809,2.841-2.829,4.17-.177.227-1.009.205-1.34-.011a1.354,1.354,0,0,1-.458-1.213c.469-1.148,1.109-2.224,1.688-3.327,1.433-2.731,2.845-5.473,4.339-8.171a1.627,1.627,0,0,1,1.274-.629c.314.006.607.574.882.872ZM301.478,368.47c-1.516-.5-3.507-1.1-5.448-1.815-.353-.133-.529-.74-.788-1.126.353-.209.728-.612,1.059-.579.485.044,1.3.336,1.356.64.215,1.109.943,1.059,1.693.943,2.663-.419,5.321-.855,7.609-2.471a3.838,3.838,0,0,1,3.833-.53c1.251.5,1.3.954.341,1.9C308.58,367.946,305.2,367.758,301.478,368.47ZM169.35,142.246c.22.148.518.353.871.59.176-.144.353-.408.557-.43a3.421,3.421,0,0,1,1.428.066,1.488,1.488,0,0,1-.033,1.131q-1.48,2.168-3.1,4.237-2.128,2.72-4.34,5.373c-.2.243-.606.32-.915.475-.077-.359-.3-.762-.2-1.065a6.775,6.775,0,0,1,.822-1.423c.347-.558,1.069-1.038.176-1.771-.11-.089.143-.8.38-1.1,1.147-1.457,2.372-2.847,3.507-4.309a10.184,10.184,0,0,0,.85-1.776ZM297.745,416.429a9.192,9.192,0,0,1-.242-2.786,17.145,17.145,0,0,1,4.753-8.712,6.891,6.891,0,0,1,5.619-1.964c.4.039.75.541,1.395,1.037-.976-.253-1.5-.573-1.914-.463a6.372,6.372,0,0,0-4.058,3.123c-1.472,2.664-2.785,5.412-4.163,8.126-.281.557-.551,1.115-.833,1.672-.187-.006-.375-.022-.557-.033ZM102.376,71.518a4.409,4.409,0,0,1,4.416,1.9,10.947,10.947,0,0,1,1.737,3.922c.171.63-.137,1.893-.557,2.064a2.6,2.6,0,0,1-2.3-.392,8.888,8.888,0,0,1-2.029-3.018,38.024,38.024,0,0,1-1.268-4.474Zm7.807,21.792c-.518,1-1.417.833-2.409.673-1.429-.232-2.879-.315-4.324-.43-1.8-.144-2.983-1.32-4.146-2.494a1.45,1.45,0,0,1-.26-1.06c.012-.12.569-.17.866-.275,3.359-1.209,5.735.744,8.194,2.5a16.354,16.354,0,0,0,2.079,1.087Zm27.676,20.077c-1.445.176-2.619.275-3.424-1.347-1.054-2.135-2.449-4.1-3.629-6.179-.193-.342-.033-.882-.038-1.329.794.143,2.018.016,2.316.48C134.776,107.676,137.192,109.938,137.859,113.387Zm75.968-74.469c3.292-3.332,6.578-6.664,10.03-10.156,1.72.413,2.04,1.031.623,2.6a37.917,37.917,0,0,1-3.959,3.393c-1.6,1.346-3.182,2.725-4.82,4.021a6.186,6.186,0,0,1-1.61.646q-.14-.25-.264-.508Z" fill="#1e1919"/>
    </g>
    <path id="Path_9" data-name="Path 9" d="M399.8,407.348c-6.776-6.5-13.311-13.318-21.494-18.184-3.005-1.787-5.194-1.649-7.681.9-1.218,1.252-2.365,2.57-3.573,3.834a1.583,1.583,0,0,0-.231,2.174,15.419,15.419,0,0,0,1.2,1.726c2.134,2.455,4.246,4.933,6.474,7.3.838.889.634,1.319-.16,2.009-1.583,1.379-3.138,2.8-4.582,4.314-.734.772-1.169.794-1.941.077-4.329-4.016-8.718-7.966-13.063-11.972-2.708-2.5-5.922-4.38-8.5-7.034a4.621,4.621,0,0,0-1.317-1.2c-3-1.225-5.316-3.426-7.83-5.341a1.715,1.715,0,0,1-.723-2.179c1.439-4.165,1.732-8.512,2.074-13.561a12.536,12.536,0,0,0-.723-4.937c-.788-2.731-1.059-5.644-2.63-8.105-1.3-2.041-3.364-3.415-4.863-5.3a4.974,4.974,0,0,0-1.2-1.059c-2.934-1.937-6.336-2.726-9.528-3.989-3.171-1.258-6.628-.916-9.959-1.208a27.541,27.541,0,0,0-15.533,3.266c-8.453,4.584-12.131,12.551-13.261,21.825-.458,3.74.788,7.349.953,11.051.265,5.936,4.009,9.952,7.814,13.913a5.35,5.35,0,0,0,1.015.629c2.845,1.837,6.175,2.279,9.307,3.294a32.693,32.693,0,0,0,24.417-1.412,1.68,1.68,0,0,1,2.029.187c5.5,4.353,10.984,8.728,16.167,13.44,8.668,7.872,16.978,16.153,26.137,23.474a47.241,47.241,0,0,0,9.49,6.025,6.14,6.14,0,0,0,5.8-.27,8.419,8.419,0,0,0,3.236-11.481,27.282,27.282,0,0,0-7.532-8.48c-1.152-.9-.981-1.49-.071-2.328a8.66,8.66,0,0,0,2.817-4.176c.309-1.225.761-1.032,1.61-.32a60.141,60.141,0,0,0,6.435,4.9,21.466,21.466,0,0,0,4.891,1.864,2.808,2.808,0,0,0,2.311-.4c4.543-2.77,7.008-8.668,2.216-13.269ZM305.167,361.6q3.316-.455,6.639-.916c.292.05.59.105.882.155,1.941.943,3.959,1.886,5.018,3.872a16.853,16.853,0,0,1,.347,15.729c-1.306,2.809-4.212,3.78-6.826,4.381a10.261,10.261,0,0,1-8.238-2.036c-3.237-2.3-4.875-5.208-4.307-9.373a23.447,23.447,0,0,1,4.114-10.791c.391-.232.777-.464,1.169-.7a.533.533,0,0,0,.617-.193l.585-.132Z" fill="#fad24b"/>
  </g>
</svg>
